<svg xmlns="http://www.w3.org/2000/svg" viewBox="0 0 800 800" width="800" height="800">
  <rect width="800" height="800" fill="#f3f0ee" />
  <ellipse cx="400" cy="640" rx="320" ry="36" fill="#000000" opacity="0.08" />

  <!-- Bottle -->
  <g transform="translate(230 190)">
    <rect x="30" y="0" width="60" height="46" rx="8" fill="#0d0d0d" />
    <rect x="45" y="-14" width="30" height="20" rx="4" fill="#0d0d0d" />
    <rect x="0" y="46" width="180" height="270" rx="14" fill="#ffffff" fill-opacity="0.35" stroke="#ffffff" stroke-opacity="0.6" stroke-width="2" />
    <rect x="18" y="88" width="144" height="170" rx="4" fill="#f9e3ec" stroke="#c9a24b" stroke-width="2" />
    <g transform="translate(90 173) scale(0.72)" fill="none" stroke="#c9a24b" stroke-width="1.4">
    <ellipse cx="0" cy="0" rx="46" ry="58" />
    <path d="M -46 0 C -50 -30 -30 -50 0 -58 C 30 -50 50 -30 46 0 C 50 30 30 50 0 58 C -30 50 -50 30 -46 0 Z" />
    <path d="M -30 -40 Q 0 -50 30 -40" />
    <path d="M -30 40 Q 0 50 30 40" />
  </g>
    <text x="90" y="150" text-anchor="middle" font-family="Georgia, 'Playfair Display', serif" font-size="15" fill="#9a6b2f" letter-spacing="2">R&amp;G</text>
    <text x="90" y="178" text-anchor="middle" font-family="Georgia, 'Playfair Display', serif" font-size="20" font-weight="700" fill="#9a6b2f" letter-spacing="1.5">ELITE</text>
    <text x="90" y="228" text-anchor="middle" font-family="Georgia, 'Playfair Display', serif" font-size="10" fill="#9a6b2f" letter-spacing="3">THE BILLIONAIRE COLLECTION</text>
  </g>

  <!-- Box -->
  <g transform="translate(470 210)">
    <rect x="0" y="0" width="220" height="330" rx="6" fill="#f2c9d9" />
    <rect x="10" y="10" width="200" height="310" rx="4" fill="none" stroke="#c9a24b" stroke-width="1.5" opacity="0.6" />
    <g transform="translate(110 150) scale(1.05)" fill="none" stroke="#c9a24b" stroke-width="1.4">
    <ellipse cx="0" cy="0" rx="46" ry="58" />
    <path d="M -46 0 C -50 -30 -30 -50 0 -58 C 30 -50 50 -30 46 0 C 50 30 30 50 0 58 C -30 50 -50 30 -46 0 Z" />
    <path d="M -30 -40 Q 0 -50 30 -40" />
    <path d="M -30 40 Q 0 50 30 40" />
  </g>
    <text x="110" y="118" text-anchor="middle" font-family="Georgia, 'Playfair Display', serif" font-size="17" fill="#c9a24b" letter-spacing="3">R&amp;G</text>
    <text x="110" y="140" text-anchor="middle" font-family="Georgia, 'Playfair Display', serif" font-size="11" fill="#c9a24b" letter-spacing="4">SCENTS</text>
    <text x="110" y="182" text-anchor="middle" font-family="Georgia, 'Playfair Display', serif" font-size="28" font-weight="700" fill="#c9a24b" letter-spacing="1.5">ELITE</text>
    <text x="110" y="206" text-anchor="middle" font-family="Georgia, 'Playfair Display', serif" font-size="10.5" fill="#c9a24b" letter-spacing="2">THE BILLIONAIRE</text>
    <text x="110" y="220" text-anchor="middle" font-family="Georgia, 'Playfair Display', serif" font-size="10.5" fill="#c9a24b" letter-spacing="2">COLLECTION</text>
    <text x="110" y="270" text-anchor="middle" font-family="Georgia, serif" font-size="11" fill="#c9a24b" letter-spacing="2">50ml</text>
  </g>
</svg>